<?xml version="1.0" encoding="utf-8"?>
<!-- Generator: Adobe Illustrator 25.2.1, SVG Export Plug-In . SVG Version: 6.00 Build 0)  -->
<svg version="1.1" id="Capa_2" xmlns="http://www.w3.org/2000/svg" xmlns:xlink="http://www.w3.org/1999/xlink" x="0px" y="0px"
	 viewBox="0 0 100 100" style="enable-background:new 0 0 100 100;" xml:space="preserve">
<style type="text/css">
	.st0{fill:none;stroke:#fff;stroke-width:5;stroke-linecap:round;stroke-linejoin:round;stroke-miterlimit:10;}
</style>
<path class="st0" d="M98.07,91"/>
<path class="st0" d="M28.36,82.28h-8.98c-2.76,0-5-2.24-5-5V53.3c0-2.76,2.24-5,5-5h8.98c2.76,0,5,2.24,5,5v23.98
	C33.36,80.04,31.12,82.28,28.36,82.28z"/>
<path class="st0" d="M57.23,82.28h-9.91c-2.76,0-5-2.24-5-5v-37c0-2.76,2.24-5,5-5h9.91c2.76,0,5,2.24,5,5v37
	C62.23,80.04,59.99,82.28,57.23,82.28z"/>
<path class="st0" d="M85.21,82.28h-9.37c-2.76,0-5-2.24-5-5V19.91c0-2.76,2.24-5,5-5h9.37c2.76,0,5,2.24,5,5v57.37
	C90.21,80.04,87.97,82.28,85.21,82.28z"/>
<path class="st0" d="M5.15,8"/>
<path class="st0" d="M94.18,92l-80.65-0.02c-7.2,0-9.48-3.41-9.48-10.61l-0.13-70.8"/>
</svg>
